<svg width="540" height="261" viewBox="0 0 540 261" fill="none" xmlns="http://www.w3.org/2000/svg">
<path d="M444.658 1.20644C444.055 3.83866 443.286 6.79991 442.349 10.0902C441.412 13.3805 440.408 16.6707 439.337 19.961C438.266 23.2513 437.162 26.2491 436.024 28.9544H423.976C424.913 24.3481 425.817 19.4126 426.687 14.1482C427.624 8.81063 428.327 4.09457 428.795 0H443.955L444.658 1.20644Z" fill="white"/>
<path d="M538.966 81.4221C538.966 92.6099 535.037 101.519 527.178 108.148C519.456 114.64 507.323 117.886 490.778 117.886C482.781 117.886 475.749 117.403 469.682 116.436C463.754 115.469 457.756 113.742 451.689 111.256V83.0796C458.307 86.1182 465.201 88.4663 472.371 90.1237C479.541 91.643 485.607 92.4027 490.571 92.4027C495.81 92.4027 499.602 91.7121 501.946 90.3309C504.29 88.9497 505.462 87.016 505.462 84.5298C505.462 82.7343 504.841 81.1459 503.6 79.7647C502.497 78.3835 500.153 76.8641 496.569 75.2067C493.122 73.4111 487.951 71.0631 481.057 68.1625C474.301 65.262 468.717 62.2924 464.305 59.2538C460.031 56.2151 456.791 52.624 454.585 48.4803C452.517 44.1986 451.482 38.881 451.482 32.5274C451.482 21.754 455.619 13.6739 463.891 8.28723C472.302 2.76241 483.401 0 497.189 0C504.497 0 511.391 0.759662 517.871 2.27899C524.351 3.79832 531.038 6.14637 537.932 9.32315L528.005 32.9418C522.352 30.4556 516.837 28.4529 511.46 26.9335C506.22 25.4142 501.463 24.6545 497.189 24.6545C489.192 24.6545 485.194 26.7263 485.194 30.87C485.194 32.3893 485.745 33.8396 486.848 35.2208C488.089 36.4638 490.364 37.8451 493.673 39.3644C497.12 40.8837 502.084 43.0246 508.564 45.787C515.044 48.4113 520.559 51.2428 525.109 54.2814C529.659 57.1819 533.106 60.7731 535.45 65.0548C537.794 69.3366 538.966 74.7923 538.966 81.4221Z" fill="white"/>
<path d="M540 224.127C540 235.314 536.07 244.223 528.211 250.853C520.49 257.345 508.357 260.591 491.811 260.591C483.814 260.591 476.783 260.107 470.716 259.14C464.787 258.173 458.79 256.447 452.723 253.961V225.784C459.341 228.823 466.235 231.171 473.405 232.828C480.574 234.348 486.641 235.107 491.605 235.107C496.844 235.107 500.636 234.417 502.98 233.035C505.324 231.654 506.495 229.721 506.495 227.234C506.495 225.439 505.875 223.85 504.634 222.469C503.531 221.088 501.187 219.569 497.602 217.911C494.155 216.116 488.985 213.768 482.091 210.867C475.335 207.967 469.751 204.997 465.339 201.958C461.065 198.92 457.824 195.329 455.618 191.185C453.55 186.903 452.516 181.586 452.516 175.232C452.516 164.459 456.652 156.379 464.925 150.992C473.336 145.467 484.435 142.705 498.223 142.705C505.53 142.705 512.424 143.464 518.905 144.984C525.385 146.503 532.072 148.851 538.966 152.028L529.039 175.646C523.386 173.16 517.87 171.157 512.493 169.638C507.254 168.119 502.497 167.359 498.223 167.359C490.226 167.359 486.227 169.431 486.227 173.575C486.227 175.094 486.779 176.544 487.882 177.925C489.123 179.168 491.398 180.55 494.707 182.069C498.154 183.588 503.117 185.729 509.598 188.492C516.078 191.116 521.593 193.947 526.143 196.986C530.693 199.887 534.14 203.478 536.484 207.759C538.828 212.041 540 217.497 540 224.127Z" fill="white"/>
<path d="M366.067 0C382.061 0 394.746 4.41986 404.121 13.2596C413.497 21.9612 418.185 34.8064 418.185 51.7952V67.9554H346.419C346.695 75.4139 349.108 81.3531 353.658 85.7729C358.208 90.1928 364.688 92.4027 373.099 92.4027C380.268 92.4027 386.818 91.7121 392.746 90.3309C398.813 88.9497 405.018 86.7398 411.36 83.7011V109.599C405.707 112.499 399.709 114.571 393.367 115.814C387.162 117.195 379.441 117.886 370.203 117.886C358.759 117.886 348.556 115.814 339.594 111.671C330.77 107.527 323.807 101.173 318.706 92.6099C313.742 83.9083 311.26 72.9277 311.26 59.6681C311.26 46.2704 313.535 35.1517 318.085 26.312C322.635 17.4723 328.978 10.9115 337.112 6.62979C345.385 2.20993 355.037 0 366.067 0ZM366.687 24.2402C361.31 24.2402 356.829 25.9667 353.244 29.4197C349.797 32.7346 347.729 38.0522 347.04 45.3726H386.128C385.99 39.4334 384.336 34.4611 381.165 30.4556C377.993 26.312 373.168 24.2402 366.687 24.2402Z" fill="white"/>
<path d="M258.728 0C270.724 0 280.375 3.37419 287.683 10.1226C295.128 16.7304 298.851 27.4856 298.851 42.3883V117.886H264.106V52.3C264.106 44.2863 262.796 38.2409 260.176 34.1637C257.556 30.0866 253.42 28.048 247.767 28.048C239.357 28.048 233.635 31.2816 230.601 37.7488C227.568 44.0754 226.051 53.2139 226.051 65.1642V117.886H191.099V2.10887H217.572L222.329 17.0819H223.983C227.568 11.4582 232.394 7.24046 238.46 4.42863C244.527 1.47621 251.283 0 258.728 0Z" fill="white"/>
<path d="M132.157 0C146.91 0 158.354 3.44695 166.488 10.3409C174.623 17.2348 178.691 27.2999 178.691 40.5362V115.818H154.493L147.668 100.513H146.841C142.015 106.718 136.913 111.199 131.536 113.956C126.159 116.576 118.782 117.886 109.407 117.886C99.3416 117.886 91 114.922 84.3818 108.993C77.7637 103.064 74.4546 93.8951 74.4546 81.4861C74.4546 69.4907 78.6599 60.5975 87.0705 54.8066C95.6189 48.8779 108.097 45.5688 124.504 44.8794L143.945 44.2589V40.9499C143.945 35.4347 142.498 31.4363 139.602 28.9544C136.845 26.4726 132.984 25.2317 128.02 25.2317C123.057 25.2317 117.886 26.059 112.509 27.7135C107.132 29.2302 101.686 31.1605 96.1704 33.5044L85.6227 10.3409C91.8273 7.03179 98.8591 4.48104 106.718 2.68862C114.577 0.896206 123.057 0 132.157 0ZM133.398 64.5271C124.711 64.8028 118.645 66.3884 115.198 69.2839C111.751 72.0414 110.027 75.8331 110.027 80.6588C110.027 84.933 111.268 88.0353 113.75 89.9656C116.232 91.8959 119.403 92.861 123.264 92.861C129.054 92.861 133.949 91.1376 137.948 87.6906C141.946 84.1058 143.945 79.28 143.945 73.2134V64.1134L133.398 64.5271Z" fill="white"/>
<path d="M205.784 142.705C220.537 142.705 231.981 146.152 240.115 153.045C248.25 159.939 252.318 170.004 252.318 183.241V258.522H228.12L221.295 243.218H220.468C215.642 249.422 210.54 253.903 205.163 256.661C199.786 259.281 192.409 260.591 183.034 260.591C172.969 260.591 164.627 257.626 158.009 251.697C151.391 245.769 148.082 236.6 148.082 224.191C148.082 212.195 152.287 203.302 160.697 197.511C169.246 191.582 181.724 188.273 198.131 187.584L217.572 186.964V183.654C217.572 178.139 216.125 174.141 213.229 171.659C210.471 169.177 206.611 167.936 201.647 167.936C196.684 167.936 191.513 168.764 186.136 170.418C180.759 171.935 175.313 173.865 169.797 176.209L159.25 153.045C165.454 149.736 172.486 147.186 180.345 145.393C188.204 143.601 196.684 142.705 205.784 142.705ZM207.025 207.232C198.338 207.507 192.272 209.093 188.825 211.988C185.378 214.746 183.654 218.538 183.654 223.363C183.654 227.638 184.895 230.74 187.377 232.67C189.859 234.6 193.03 235.566 196.89 235.566C202.681 235.566 207.576 233.842 211.575 230.395C215.573 226.81 217.572 221.985 217.572 215.918V206.818L207.025 207.232Z" fill="white"/>
<path d="M87.6908 260.591C83.4166 260.591 79.6939 260.464 76.5227 260.21C73.2136 259.957 70.4561 259.661 68.25 259.323V241.957C70.3182 242.21 72.5932 242.464 75.075 242.718C77.4189 243.056 80.0386 243.225 82.934 243.225C89.1386 243.225 93.8264 242.041 96.9976 239.675C100.169 237.309 101.754 233.084 101.754 226.999V142.705H137.12V225.985C137.12 234.351 134.983 241.07 130.709 246.14C126.573 251.21 120.782 254.886 113.336 257.168C105.891 259.45 97.3423 260.591 87.6908 260.591Z" fill="white"/>
<path d="M19.2657 117.886C15.03 117.886 11.3408 117.759 8.19817 117.506C4.9189 117.252 2.18618 116.956 0 116.618V99.2524C2.04954 99.5059 4.30404 99.7594 6.76349 100.013C9.08631 100.351 11.6824 100.52 14.5518 100.52C20.7004 100.52 25.346 99.3369 28.4886 96.9707C31.6313 94.6045 33.2026 90.3792 33.2026 84.2948V0H68.2498V83.2807C68.2498 91.6468 66.1319 98.3651 61.8962 103.435C57.7971 108.506 52.0584 112.182 44.68 114.463C37.3017 116.745 28.8302 117.886 19.2657 117.886Z" fill="white"/>
<path d="M400.605 142.705C413.566 142.705 423.355 146.079 429.973 152.827C436.729 159.435 440.107 170.19 440.107 185.093V260.591H405.362V195.005C405.362 186.569 404.052 180.453 401.432 176.657C398.951 172.721 395.09 170.753 389.851 170.753C382.543 170.753 377.373 173.705 374.339 179.61C371.306 185.374 369.789 193.599 369.789 204.284V260.591H335.044V195.005C335.044 178.837 329.943 170.753 319.74 170.753C312.018 170.753 306.71 173.986 303.815 180.453C301.057 186.78 299.678 195.918 299.678 207.869V260.591H264.726V144.813H291.199L296.162 159.365H297.61C300.781 154.022 305.262 149.945 311.053 147.133C316.982 144.181 323.669 142.705 331.114 142.705C347.384 142.705 358.759 148.188 365.239 159.154H367.308C370.892 153.671 375.649 149.594 381.578 146.922C387.507 144.111 393.849 142.705 400.605 142.705Z" fill="white"/>
<path d="M68.25 236.806C68.25 236.806 96.1704 239.701 100.307 234.738C104.443 229.774 106.511 223.363 106.511 223.363L109.613 247.147H68.25V236.806Z" fill="white"/>
<path d="M0 92.0344C0 92.0344 27.9204 94.9299 32.0567 89.9663C36.1931 85.0027 38.2612 78.5913 38.2612 78.5913L41.3635 102.375H0V92.0344Z" fill="white"/>
</svg>
