<svg width="127" height="29" viewBox="0 0 127 29" fill="none" xmlns="http://www.w3.org/2000/svg">
<path d="M113.631 28.624H116.131H117.631H119.631C122.924 28.624 126.631 25.1466 126.631 21.1052V6.83547C126.631 2.79407 122.988 0 119.695 0H6.93524C2.99363 0 0 2.94375 0 6.83547V21.1052C0 24.997 2.99363 27.9407 6.93524 27.9407H8.23248H9.16797L11.168 27.8927L15.8164 27.9407L110.215 28.5394H111.131L113.631 28.624ZM7.53397 20.4566V7.43421H119.146V20.4566H7.53397ZM110.215 28.5394L33.1677 28.0513L15.8164 27.9407L110.215 28.5394H110.521H111.131H110.215Z" fill="white"/>
</svg>
