<svg id="Layer_1" data-name="Layer 1" xmlns="http://www.w3.org/2000/svg" viewBox="0 0 385.26 458.9"><defs><style>.cls-1{font-size:81.22px;}.cls-1,.cls-2{fill:#1d1d1b;font-family:Inter-ThinBETA, Inter;font-weight:200;}.cls-2{font-size:72.37px;}.cls-3{fill:none;stroke:#12100b;stroke-width:0.5px;}.cls-3,.cls-4{stroke-miterlimit:10;}.cls-4{fill:#fff;stroke:#1d1d1b;stroke-width:1.5px;}</style></defs><text class="cls-1" transform="translate(94.77 231.4) rotate(-68.12)">C</text><text class="cls-1" transform="matrix(0.81, -0.59, 0.59, 0.81, 115.64, 177.86)">O</text><text class="cls-1" transform="translate(163.28 142.46) rotate(-3.78)">O</text><text class="cls-1" transform="translate(222.45 139.55) rotate(25.89)">K</text><text class="cls-1" transform="matrix(0.7, 0.72, -0.72, 0.7, 266.29, 163.67)">I</text><text class="cls-1" transform="translate(282.63 177.42) rotate(64.79)">E</text><text class="cls-2" transform="translate(81.37 355.41) rotate(36.55) scale(1.02 1)">C</text><text class="cls-2" transform="translate(147.15 396.16) rotate(12.1) scale(1.02 1)">L</text><text class="cls-2" transform="translate(212.67 406.31) rotate(-12.82) scale(1.02 1)">U</text><text class="cls-2" transform="translate(290.12 381.56) rotate(-39.57) scale(1.02 1)">B</text><circle class="cls-3" cx="335.48" cy="255.39" r="4.92"/><circle class="cls-3" cx="80.55" cy="255.39" r="4.92"/><circle class="cls-4" cx="205.65" cy="255.39" r="60.11"/><circle class="cls-4" cx="205.65" cy="216.33" r="8.22"/><circle class="cls-4" cx="168.4" cy="241.03" r="8.22"/><circle class="cls-4" cx="230.24" cy="287.97" r="8.22"/><circle class="cls-4" cx="243.11" cy="236.89" r="8.22"/><circle class="cls-4" cx="205.65" cy="255.39" r="8.22"/><circle class="cls-4" cx="180.01" cy="284.31" r="8.22"/></svg>