<svg width="107" height="111" viewBox="0 0 107 111" fill="none" xmlns="http://www.w3.org/2000/svg">
<path d="M1.5 107.727V109.227H3H21.9716H23.4716V107.727V73.8409H42.017C54.4137 73.8409 64.1164 70.1133 70.7257 63.6321C77.3346 57.1511 80.6932 48.0703 80.6932 37.6705C80.6932 27.3501 77.3749 18.2721 70.8212 11.7723C64.2649 5.26991 54.6246 1.5 42.2727 1.5H3H1.5V3V107.727ZM23.4716 55.2443V20.3523H39.358C46.2042 20.3523 50.9008 22.1955 53.8872 25.1477C56.8732 28.0995 58.3636 32.3717 58.3636 37.6705C58.3636 42.9705 56.8721 47.3147 53.8878 50.3332C50.9089 53.3463 46.239 55.2443 39.4602 55.2443H23.4716Z" fill="#D83000" stroke="#2E294E" stroke-width="3"/>
<path d="M23.5 107.727V109.227H25H67.392C79.6251 109.227 88.9472 106.11 95.2345 100.716C101.546 95.3013 104.636 87.7301 104.636 79.1932C104.636 64.6036 95.5235 55.1589 85.2479 52.6286C88.9344 51.2044 92.2458 49.0765 94.8445 46.1756C98.4082 42.1975 100.545 36.8598 100.545 30.1534C100.545 21.9738 97.5822 14.7474 91.558 9.58864C85.5585 4.45101 76.6842 1.5 65.0909 1.5H25H23.5V3V107.727ZM45.4716 90.375V62.6932H64.8864C70.4355 62.6932 74.7999 64.3858 77.7585 67.056C80.7092 69.7191 82.358 73.4375 82.358 77.7102C82.358 81.5071 81.0722 84.5784 78.3428 86.7431C75.5584 88.9514 71.0723 90.375 64.375 90.375H45.4716ZM45.4716 46.0398V20.1477H63.1477C68.4684 20.1477 72.3121 21.5498 74.8042 23.7275C77.2759 25.8875 78.5739 28.9445 78.5739 32.608C78.5739 36.7688 76.9023 40.0781 74.1472 42.373C71.3667 44.6892 67.3937 46.0398 62.7386 46.0398H45.4716Z" stroke="#2E294E" stroke-width="3"/>
</svg>
